Coordinates
version=1
nRows=38
nColumns=38
inDegrees=no

Units are S.I. units (second, meters, Newtons, ...)
If the header above contains a line with 'inDegrees', this indicates whether rotational values are in degrees (yes) or radians (no).

endheader
time	pelvis_tilt	pelvis_list	pelvis_rotation	pelvis_tx	pelvis_ty	pelvis_tz	hip_flexion_r	hip_adduction_r	hip_rotation_r	knee_angle_r	ankle_angle_r	subtalar_angle_r	mtp_angle_r	hip_flexion_l	hip_adduction_l	hip_rotation_l	knee_angle_l	ankle_angle_l	subtalar_angle_l	mtp_angle_l	lumbar_extension	lumbar_bending	lumbar_rotation	arm_flex_r	arm_add_r	arm_rot_r	elbow_flex_r	pro_sup_r	wrist_flex_r	wrist_dev_r	arm_flex_l	arm_add_l	arm_rot_l	elbow_flex_l	pro_sup_l	wrist_flex_l	wrist_dev_l
0	1.66155	1.55786	0.227834	0.625748	0.386363	1.0596	0.0698735	-0.0590265	-0.243444	0.307426	-0.227453	0	0	0.0860962	-0.204193	-0.158521	0.240754	-0.298042	0	0	-0.532723	0.0105323	0.126411	0.153388	-0.393285	-0.050481	0.686927	1.14319	0	0	0.262811	-0.250555	0.134633	0.731234	1.5708	0	0
0.01	1.4265	1.55647	0.459664	0.625329	0.385791	1.05929	0.0766338	-0.0603058	-0.241843	0.310434	-0.228622	0	0	0.0908661	-0.204305	-0.160818	0.243613	-0.297089	0	0	-0.534633	0.0117391	0.123968	0.156092	-0.392942	-0.0476771	0.690673	1.13738	0	0	0.265064	-0.249841	0.126297	0.734952	1.5708	0	0
0.02	1.22885	1.55432	0.654456	0.624882	0.385129	1.05893	0.0841393	-0.0618681	-0.240163	0.314688	-0.229523	0	0	0.0964213	-0.20443	-0.162877	0.247048	-0.29599	0	0	-0.536705	0.0129428	0.121746	0.158577	-0.392703	-0.0470173	0.695188	1.13072	0	0	0.267927	-0.24907	0.118589	0.738806	1.5708	0	0
0.03	1.08269	1.55146	0.797882	0.62444	0.384393	1.05855	0.092142	-0.063242	-0.238355	0.319647	-0.230217	0	0	0.102541	-0.204846	-0.165055	0.251046	-0.294656	0	0	-0.538941	0.014174	0.120019	0.161286	-0.392638	-0.0471173	0.699556	1.12665	0	0	0.271405	-0.248417	0.112006	0.742737	1.5708	0	0
0.04	0.98259	1.54822	0.895262	0.624036	0.383592	1.05815	0.100474	-0.0644657	-0.236574	0.32536	-0.230557	0	0	0.108976	-0.205562	-0.167507	0.255664	-0.293107	0	0	-0.541657	0.0153287	0.118705	0.163826	-0.39264	-0.047315	0.704703	1.12357	0	0	0.27519	-0.247664	0.105252	0.747297	1.5708	0	0
0.05	0.912057	1.54479	0.96305	0.62368	0.382726	1.05774	0.109285	-0.0657194	-0.235097	0.332027	-0.230699	0	0	0.115552	-0.206443	-0.169985	0.260511	-0.291473	0	0	-0.545007	0.0164004	0.117623	0.166286	-0.39276	-0.0484847	0.711084	1.11784	0	0	0.279103	-0.24709	0.0986319	0.752855	1.5708	0	0
0.06	0.85637	1.54085	1.01581	0.623383	0.381785	1.05728	0.118637	-0.0665712	-0.232877	0.338512	-0.230811	0	0	0.122783	-0.20765	-0.172431	0.265793	-0.289595	0	0	-0.548361	0.0173666	0.116716	0.169748	-0.393275	-0.048485	0.716858	1.11223	0	0	0.283098	-0.246748	0.0922577	0.759004	1.5708	0	0
0.07	0.775042	1.53457	1.09398	0.623173	0.380918	1.05656	0.131097	-0.067422	-0.229774	0.345325	-0.231011	0	0	0.132915	-0.208866	-0.174409	0.271209	-0.287877	0	0	-0.545211	0.0186935	0.113669	0.177063	-0.39397	-0.0395719	0.714832	1.10683	0	0	0.286579	-0.246946	0.0868253	0.758999	1.5708	0	0
0.08	0.719819	1.52799	1.14588	0.623044	0.379945	1.05579	0.14401	-0.0680718	-0.226422	0.352495	-0.231174	0	0	0.143453	-0.210364	-0.176466	0.27703	-0.285945	0	0	-0.542519	0.02003	0.110559	0.184984	-0.394762	-0.0309649	0.713478	1.10207	0	0	0.289848	-0.247403	0.0811024	0.760155	1.5708	0	0
0.09	0.678897	1.52117	1.18346	0.62299	0.378834	1.05496	0.157595	-0.0686925	-0.223058	0.360317	-0.231213	0	0	0.154761	-0.21204	-0.178282	0.283692	-0.28352	0	0	-0.540328	0.0213276	0.107232	0.193428	-0.395454	-0.0222432	0.712942	1.09779	0	0	0.292996	-0.248059	0.0747851	0.762567	1.5708	0	0
0.1	0.653756	1.51479	1.20588	0.62292	0.377572	1.05415	0.170673	-0.069253	-0.220647	0.368221	-0.23149	0	0	0.165955	-0.213755	-0.178888	0.290591	-0.281231	0	0	-0.539251	0.0229406	0.103934	0.201772	-0.395956	-0.0152311	0.713358	1.09546	0	0	0.297057	-0.248868	0.0695697	0.765257	1.5708	0	0
0.11	0.632031	1.50818	1.22457	0.622932	0.376308	1.05326	0.184375	-0.0698814	-0.217959	0.376674	-0.231785	0	0	0.177466	-0.215727	-0.180223	0.297866	-0.278776	0	0	-0.538162	0.0241128	0.101393	0.21037	-0.396494	-0.00870676	0.71335	1.09545	0	0	0.301532	-0.249676	0.064912	0.768166	1.5708	0	0
0.12	0.613377	1.50132	1.23983	0.623048	0.375019	1.0523	0.198487	-0.0703531	-0.214699	0.385067	-0.232205	0	0	0.189317	-0.218007	-0.182197	0.305444	-0.276206	0	0	-0.53719	0.0248354	0.0997003	0.218865	-0.397031	-0.00282364	0.713596	1.09552	0	0	0.306398	-0.250274	0.0602554	0.771483	1.5708	0	0
0.13	0.597541	1.49421	1.25226	0.623223	0.37365	1.05127	0.21308	-0.0707879	-0.211622	0.393649	-0.232604	0	0	0.201767	-0.220581	-0.18417	0.313466	-0.273483	0	0	-0.53644	0.0253864	0.0983823	0.227183	-0.397464	0.00145838	0.714681	1.09432	0	0	0.31164	-0.250958	0.0561081	0.775367	1.5708	0	0
0.14	0.58211	1.48672	1.26422	0.623466	0.372214	1.05013	0.228566	-0.0714252	-0.208855	0.403054	-0.232839	0	0	0.215153	-0.223416	-0.186366	0.322431	-0.270251	0	0	-0.535762	0.0255427	0.0975048	0.235535	-0.398041	0.00466778	0.716312	1.09241	0	0	0.317208	-0.251651	0.0522078	0.779989	1.5708	0	0
0.15	0.570095	1.47987	1.273	0.623746	0.370728	1.049	0.243193	-0.0721449	-0.207037	0.412131	-0.233098	0	0	0.227758	-0.226091	-0.187894	0.330837	-0.267484	0	0	-0.535991	0.0255299	0.0970376	0.243579	-0.398608	0.00630694	0.718663	1.08977	0	0	0.323934	-0.252767	0.0501089	0.784378	1.5708	0	0
0.16	0.558266	1.47301	1.28174	0.624046	0.369163	1.04782	0.258047	-0.0730831	-0.205844	0.421428	-0.233256	0	0	0.240645	-0.228608	-0.189051	0.339381	-0.264592	0	0	-0.536583	0.0253853	0.0966628	0.251509	-0.399191	0.00728789	0.721753	1.0864	0	0	0.331149	-0.253867	0.0483002	0.789077	1.5708	0	0
0.17	0.547688	1.46614	1.28939	0.624351	0.367549	1.04656	0.273001	-0.0739961	-0.205316	0.43091	-0.233166	0	0	0.253675	-0.231161	-0.190009	0.348094	-0.261433	0	0	-0.537538	0.0250795	0.0964291	0.259609	-0.399965	0.00816059	0.72503	1.08278	0	0	0.338407	-0.254949	0.0464901	0.79451	1.5708	0	0
0.18	0.538034	1.4591	1.29629	0.624646	0.365894	1.0452	0.28832	-0.0750395	-0.205525	0.440811	-0.232865	0	0	0.266972	-0.233966	-0.191168	0.35723	-0.25795	0	0	-0.538591	0.0246649	0.0960469	0.268247	-0.400992	0.0106329	0.728027	1.07808	0	0	0.345606	-0.255988	0.0442403	0.800611	1.5708	0	0
0.19	0.526042	1.45173	1.30565	0.624955	0.36416	1.04371	0.304435	-0.0764213	-0.20574	0.451428	-0.232357	0	0	0.280877	-0.236615	-0.192993	0.366684	-0.25452	0	0	-0.538222	0.0244948	0.0936583	0.279379	-0.402252	0.0179327	0.728641	1.07294	0	0	0.352072	-0.257924	0.0414864	0.805703	1.5708	0	0
0.2	0.512763	1.44417	1.31649	0.625249	0.36233	1.04213	0.321093	-0.078149	-0.205714	0.462247	-0.231843	0	0	0.295577	-0.239195	-0.195834	0.376798	-0.251419	0	0	-0.537999	0.0240549	0.0915826	0.29063	-0.403874	0.0246451	0.729455	1.06816	0	0	0.359429	-0.259691	0.0394495	0.810637	1.5708	0	0
0.21	0.496573	1.43526	1.3301	0.625613	0.3604	1.04029	0.340084	-0.0800323	-0.204485	0.474418	-0.230345	0	0	0.312631	-0.241889	-0.199032	0.388585	-0.247191	0	0	-0.536778	0.0232032	0.0894647	0.30201	-0.405518	0.0318283	0.730845	1.06073	0	0	0.366587	-0.26143	0.0364995	0.816487	1.5708	0	0
0.22	0.484879	1.42771	1.33999	0.625877	0.3584	1.03855	0.356926	-0.0819615	-0.20328	0.485253	-0.229175	0	0	0.327789	-0.244055	-0.200331	0.398822	-0.243694	0	0	-0.537351	0.0226947	0.0877172	0.312909	-0.407531	0.0375613	0.733314	1.05337	0	0	0.375495	-0.262885	0.0350758	0.821302	1.5708	0	0
0.23	0.46982	1.41823	1.35334	0.626152	0.35625	1.03643	0.37746	-0.0845119	-0.201211	0.499422	-0.227654	0	0	0.346743	-0.246455	-0.202401	0.41223	-0.239012	0	0	-0.536361	0.0217879	0.0870032	0.322486	-0.410469	0.0421783	0.737542	1.04081	0	0	0.385685	-0.264498	0.036274	0.825821	1.5708	0	0
0.24	0.464624	1.41331	1.3576	0.626306	0.354093	1.0349	0.390448	-0.0866784	-0.200885	0.508204	-0.227699	0	0	0.358304	-0.248061	-0.201525	0.419665	-0.237458	0	0	-0.539781	0.0216206	0.0870819	0.332474	-0.414166	0.0460737	0.741142	1.03321	0	0	0.399424	-0.267143	0.0443431	0.826792	1.5708	0	0
0.25	0.455235	1.4056	1.36543	0.626555	0.351804	1.03295	0.408338	-0.0891261	-0.19986	0.520532	-0.227454	0	0	0.374512	-0.250294	-0.202299	0.430521	-0.235081	0	0	-0.542694	0.0213382	0.0831708	0.346265	-0.414257	0.048046	0.744639	1.04229	0	0	0.406188	-0.267072	0.0319946	0.836892	1.5708	0	0
0.26	0.443453	1.39691	1.37553	0.626836	0.349458	1.03074	0.428356	-0.0923094	-0.19844	0.534734	-0.225762	0	0	0.392968	-0.252733	-0.204373	0.443792	-0.230805	0	0	-0.544098	0.0203822	0.080672	0.359085	-0.415499	0.0503113	0.74809	1.04528	0	0	0.4152	-0.268688	0.0277127	0.844881	1.5708	0	0
0.27	0.432295	1.38865	1.38522	0.627068	0.347063	1.02845	0.448034	-0.0957227	-0.197295	0.549233	-0.223669	0	0	0.411095	-0.255099	-0.206521	0.457275	-0.226269	0	0	-0.545955	0.0192003	0.0788123	0.37166	-0.41751	0.052323	0.751812	1.04283	0	0	0.425682	-0.270017	0.0250243	0.851695	1.5708	0	0
0.28	0.419622	1.37878	1.39629	0.627336	0.344563	1.02578	0.470721	-0.099393	-0.19581	0.566113	-0.218365	0	0	0.432362	-0.258166	-0.210476	0.474011	-0.218597	0	0	-0.54631	0.017871	0.0763142	0.384815	-0.419953	0.0567633	0.75575	1.0355	0	0	0.435307	-0.271356	0.0204721	0.859577	1.5708	0	0
0.29	0.408236	1.36999	1.40645	0.627574	0.342004	1.02316	0.49196	-0.103394	-0.195083	0.581983	-0.2162	0	0	0.451998	-0.260975	-0.213908	0.489356	-0.214238	0	0	-0.547775	0.0164004	0.0746784	0.397471	-0.422799	0.0596092	0.759681	1.03327	0	0	0.447169	-0.272445	0.0183754	0.865208	1.5708	0	0
0.3	0.395694	1.36031	1.41767	0.627885	0.339399	1.02026	0.515076	-0.108026	-0.194314	0.599312	-0.213407	0	0	0.473267	-0.264095	-0.218034	0.506107	-0.209252	0	0	-0.548246	0.0144973	0.0731324	0.409995	-0.425414	0.0617662	0.763669	1.02914	0	0	0.459285	-0.273481	0.0161184	0.870501	1.5708	0	0
0.31	0.385956	1.35198	1.42602	0.628298	0.336849	1.01739	0.536615	-0.112306	-0.193974	0.616458	-0.212824	0	0	0.493082	-0.267823	-0.221795	0.522956	-0.206082	0	0	-0.550329	0.0125472	0.0723205	0.422175	-0.427559	0.0612404	0.768287	1.0267	0	0	0.472644	-0.274443	0.0147079	0.875186	1.5708	0	0
0.32	0.376081	1.34277	1.43416	0.62881	0.334293	1.0142	0.560016	-0.116357	-0.192718	0.635378	-0.209044	0	0	0.514921	-0.27265	-0.227039	0.542655	-0.200259	0	0	-0.551458	0.0103073	0.0716592	0.434635	-0.430197	0.0618899	0.772814	1.0227	0	0	0.485909	-0.275594	0.0130976	0.880193	1.5708	0	0
0.33	0.366968	1.33383	1.44242	0.629128	0.331713	1.01085	0.583514	-0.121678	-0.192772	0.655321	-0.205445	0	0	0.537342	-0.277383	-0.231976	0.563603	-0.194507	0	0	-0.55271	0.00853886	0.0704492	0.44732	-0.433279	0.0634015	0.776912	1.02051	0	0	0.499686	-0.27659	0.0120109	0.884739	1.5708	0	0
0.34	0.359485	1.32559	1.45005	0.629235	0.329071	1.00739	0.60616	-0.128001	-0.194268	0.675598	-0.202006	0	0	0.559845	-0.281949	-0.236128	0.585417	-0.189074	0	0	-0.554695	0.00763444	0.0685409	0.460359	-0.436715	0.0649963	0.781216	1.01798	0	0	0.513961	-0.277612	0.0115244	0.888942	1.5708	0	0
0.35	0.350432	1.315	1.45888	0.629512	0.326382	1.0034	0.632216	-0.134155	-0.194376	0.697687	-0.192961	0	0	0.586452	-0.287529	-0.241543	0.610699	-0.180134	0	0	-0.553729	0.00612292	0.0669329	0.473043	-0.440297	0.0672569	0.785209	1.01027	0	0	0.528194	-0.279157	0.0123925	0.892774	1.569	0	0
0.36	0.343996	1.30703	1.46536	0.62983	0.323803	0.999597	0.654092	-0.13994	-0.195758	0.717722	-0.187504	0	0	0.609597	-0.293333	-0.246415	0.63434	-0.174694	0	0	-0.555812	0.00490296	0.0654154	0.486282	-0.443551	0.0683426	0.78936	1.00564	0	0	0.543664	-0.280845	0.0142138	0.896023	1.55907	0	0
0.37	0.33906	1.2995	1.47061	0.63018	0.32128	0.995677	0.675113	-0.145455	-0.197749	0.73758	-0.181469	0	0	0.632841	-0.299734	-0.251139	0.658821	-0.169675	0	0	-0.558319	0.00407245	0.0640152	0.499544	-0.446862	0.0693053	0.793664	1.00056	0	0	0.559705	-0.282534	0.0163832	0.898575	1.54956	0	0
